<?xml version="1.0" encoding="UTF-8" standalone="no"?>
<!-- Created with Inkscape (http://www.inkscape.org/) -->

<svg
   xmlns:dc="http://purl.org/dc/elements/1.1/"
   xmlns:cc="http://creativecommons.org/ns#"
   xmlns:rdf="http://www.w3.org/1999/02/22-rdf-syntax-ns#"
   xmlns:svg="http://www.w3.org/2000/svg"
   xmlns="http://www.w3.org/2000/svg"
   xmlns:sodipodi="http://sodipodi.sourceforge.net/DTD/sodipodi-0.dtd"
   xmlns:inkscape="http://www.inkscape.org/namespaces/inkscape"
   width="210mm"
   height="297mm"
   viewBox="0 0 210 297"
   version="1.1"
   id="svg8"
   inkscape:version="0.92.4 (5da689c313, 2019-01-14)"
   sodipodi:docname="title.svg">
  <defs
     id="defs2" />
  <sodipodi:namedview
     id="base"
     pagecolor="#ffffff"
     bordercolor="#666666"
     borderopacity="1.0"
     inkscape:pageopacity="0.0"
     inkscape:pageshadow="2"
     inkscape:zoom="0.98994949"
     inkscape:cx="300.7626"
     inkscape:cy="646.17423"
     inkscape:document-units="mm"
     inkscape:current-layer="layer1"
     showgrid="false"
     inkscape:window-width="1920"
     inkscape:window-height="1017"
     inkscape:window-x="-8"
     inkscape:window-y="-8"
     inkscape:window-maximized="1"
     units="px" />
  <metadata
     id="metadata5">
    <rdf:RDF>
      <cc:Work
         rdf:about="">
        <dc:format>image/svg+xml</dc:format>
        <dc:type
           rdf:resource="http://purl.org/dc/dcmitype/StillImage" />
        <dc:title></dc:title>
      </cc:Work>
    </rdf:RDF>
  </metadata>
  <g
     inkscape:label="Layer 1"
     inkscape:groupmode="layer"
     id="layer1">
    <path
       inkscape:connector-curvature="0"
       id="path4963"
       style="font-style:normal;font-variant:normal;font-weight:normal;font-stretch:normal;font-size:22.57777786px;line-height:6.25;font-family:inconsolata;-inkscape-font-specification:inconsolata;letter-spacing:0px;word-spacing:0px;fill:#000000;fill-opacity:1;stroke:none;stroke-width:0.26458332"
       d="m 30.542024,70.287438 q 0,1.367013 0.496094,2.061545 0.507118,0.694531 1.488281,0.694531 h 2.370226 v 1.719792 h -2.568663 q -1.819011,0 -2.822223,-1.168577 -0.992187,-1.168576 -0.992187,-3.307291 V 59.075719 h -3.25217 v -1.5875 h 5.280642 z" />
    <path
       inkscape:connector-curvature="0"
       id="path4965"
       style="font-style:normal;font-variant:normal;font-weight:normal;font-stretch:normal;font-size:22.57777786px;line-height:6.25;font-family:inconsolata;-inkscape-font-specification:inconsolata;letter-spacing:0px;word-spacing:0px;fill:#000000;fill-opacity:1;stroke:none;stroke-width:0.26458332"
       d="m 49.338465,68.082576 v 0.992188 h -8.786371 v 0.06615 q 0,2.017448 1.047309,3.119878 1.058333,1.102431 2.976562,1.102431 0.970139,0 2.028472,-0.308681 1.058334,-0.30868 2.259983,-0.937066 v 2.017448 q -1.157552,0.474045 -2.237934,0.705556 -1.069358,0.242535 -2.07257,0.242535 -2.877343,0 -4.497916,-1.719792 -1.620573,-1.730816 -1.620573,-4.7625 0,-2.954514 1.5875,-4.718403 1.5875,-1.763889 4.233333,-1.763889 2.359202,0 3.715191,1.598524 1.367014,1.598525 1.367014,4.365625 z m -2.028472,-0.595312 q -0.0441,-1.785938 -0.848872,-2.711979 -0.79375,-0.937066 -2.293055,-0.937066 -1.466233,0 -2.414323,0.970139 -0.94809,0.970139 -1.124479,2.68993 z" />
    <path
       inkscape:connector-curvature="0"
       id="path4967"
       style="font-style:normal;font-variant:normal;font-weight:normal;font-stretch:normal;font-size:22.57777786px;line-height:6.25;font-family:inconsolata;-inkscape-font-specification:inconsolata;letter-spacing:0px;word-spacing:0px;fill:#000000;fill-opacity:1;stroke:none;stroke-width:0.26458332"
       d="m 62.986556,62.416083 -4.420746,5.909028 4.850694,6.438195 h -2.348177 l -3.615972,-4.949914 -3.604948,4.949914 H 51.49923 l 4.850694,-6.438195 -4.420746,-5.909028 h 2.248958 l 3.274219,4.464844 3.25217,-4.464844 z" />
    <path
       inkscape:connector-curvature="0"
       id="path4969"
       style="font-style:normal;font-variant:normal;font-weight:normal;font-stretch:normal;font-size:22.57777786px;line-height:6.25;font-family:inconsolata;-inkscape-font-specification:inconsolata;letter-spacing:0px;word-spacing:0px;fill:#000000;fill-opacity:1;stroke:none;stroke-width:0.26458332"
       d="m 71.982389,68.556622 h -0.672483 q -1.774913,0 -2.678906,0.628385 -0.892969,0.617361 -0.892969,1.852083 0,1.113455 0.672483,1.730816 0.672482,0.617361 1.863107,0.617361 1.675695,0 2.634809,-1.157552 0.959115,-1.168576 0.970139,-3.219097 v -0.451996 z m 3.935677,-0.837848 v 7.044532 h -2.039497 v -1.830035 q -0.650434,1.10243 -1.642621,1.631597 -0.981163,0.518143 -2.392275,0.518143 -1.885156,0 -3.009635,-1.058334 -1.124479,-1.069357 -1.124479,-2.855295 0,-2.061545 1.378038,-3.130903 1.389063,-1.069357 4.067969,-1.069357 h 2.723003 v -0.319705 q -0.01102,-1.477257 -0.749653,-2.138716 -0.738628,-0.672482 -2.359201,-0.672482 -1.036285,0 -2.094618,0.297656 -1.058333,0.297656 -2.061545,0.87092 v -2.028472 q 1.124479,-0.429948 2.149739,-0.63941 1.036285,-0.220486 2.006424,-0.220486 1.532379,0 2.612761,0.451997 1.091406,0.451996 1.763888,1.355989 0.418924,0.551216 0.595313,1.367014 0.176389,0.804774 0.176389,2.425347 z" />
    <path
       inkscape:connector-curvature="0"
       id="path4971"
       style="font-style:normal;font-variant:normal;font-weight:normal;font-stretch:normal;font-size:22.57777786px;line-height:6.25;font-family:inconsolata;-inkscape-font-specification:inconsolata;letter-spacing:0px;word-spacing:0px;fill:#000000;fill-opacity:1;stroke:none;stroke-width:0.26458332"
       d="m 89.411815,67.112438 v 7.650868 h -2.039497 v -7.650868 q 0,-1.664671 -0.584288,-2.447396 -0.584288,-0.782726 -1.830035,-0.782726 -1.422135,0 -2.193836,1.014236 -0.760677,1.003212 -0.760677,2.888368 v 6.978386 H 79.975009 V 62.416083 h 2.028473 v 1.852084 q 0.54019,-1.058334 1.466232,-1.598525 0.926042,-0.551215 2.193837,-0.551215 1.885156,0 2.811198,1.245747 0.937066,1.234722 0.937066,3.748264 z" />
    <path
       inkscape:connector-curvature="0"
       id="path4973"
       style="font-style:normal;font-variant:normal;font-weight:normal;font-stretch:normal;font-size:22.57777786px;line-height:6.25;font-family:inconsolata;-inkscape-font-specification:inconsolata;letter-spacing:0px;word-spacing:0px;fill:#000000;fill-opacity:1;stroke:none;stroke-width:0.26458332"
       d="m 100.86607,63.992559 v -6.383073 h 2.02847 v 17.15382 h -2.02847 v -1.554427 q -0.50712,0.915017 -1.355988,1.400086 -0.837848,0.474046 -1.940278,0.474046 -2.237934,0 -3.527778,-1.730816 -1.278819,-1.741841 -1.278819,-4.795573 0,-3.009636 1.289843,-4.718403 1.289844,-1.719792 3.516754,-1.719792 1.113455,0 1.962326,0.48507 0.84887,0.474045 1.33394,1.389062 z m -5.964148,4.60816 q 0,2.359201 0.749653,3.560851 0.749652,1.201649 2.215885,1.201649 1.466233,0 2.22691,-1.212674 0.7717,-1.212673 0.7717,-3.549826 0,-2.348177 -0.7717,-3.549827 -0.760677,-1.212673 -2.22691,-1.212673 -1.466233,0 -2.215885,1.201649 -0.749653,1.201649 -0.749653,3.560851 z" />
    <path
       inkscape:connector-curvature="0"
       id="path4975"
       style="font-style:normal;font-variant:normal;font-weight:normal;font-stretch:normal;font-size:22.57777786px;line-height:6.25;font-family:inconsolata;-inkscape-font-specification:inconsolata;letter-spacing:0px;word-spacing:0px;fill:#000000;fill-opacity:1;stroke:none;stroke-width:0.26458332"
       d="m 117.24818,68.082576 v 0.992188 h -8.78637 v 0.06615 q 0,2.017448 1.04731,3.119878 1.05834,1.102431 2.97656,1.102431 0.97014,0 2.02848,-0.308681 1.05833,-0.30868 2.25998,-0.937066 v 2.017448 q -1.15755,0.474045 -2.23793,0.705556 -1.06936,0.242535 -2.07257,0.242535 -2.87735,0 -4.49792,-1.719792 -1.62057,-1.730816 -1.62057,-4.7625 0,-2.954514 1.5875,-4.718403 1.5875,-1.763889 4.23333,-1.763889 2.3592,0 3.71519,1.598524 1.36701,1.598525 1.36701,4.365625 z m -2.02847,-0.595312 q -0.0441,-1.785938 -0.84887,-2.711979 -0.79375,-0.937066 -2.29305,-0.937066 -1.46624,0 -2.41433,0.970139 -0.94809,0.970139 -1.12448,2.68993 z" />
    <path
       inkscape:connector-curvature="0"
       id="path4977"
       style="font-style:normal;font-variant:normal;font-weight:normal;font-stretch:normal;font-size:22.57777786px;line-height:6.25;font-family:inconsolata;-inkscape-font-specification:inconsolata;letter-spacing:0px;word-spacing:0px;fill:#000000;fill-opacity:1;stroke:none;stroke-width:0.26458332"
       d="m 131.30418,64.962698 q -0.65044,-0.507118 -1.32292,-0.738628 -0.67248,-0.231511 -1.47726,-0.231511 -1.89618,0 -2.89939,1.190625 -1.00321,1.190625 -1.00321,3.439583 v 6.140539 h -2.0395 V 62.416083 h 2.0395 v 2.414323 q 0.50712,-1.311892 1.55443,-2.006423 1.05833,-0.705556 2.50251,-0.705556 0.74966,0 1.40009,0.187413 0.65043,0.187414 1.24575,0.584289 z" />
    <path
       inkscape:connector-curvature="0"
       id="path4979"
       style="font-style:normal;font-variant:normal;font-weight:normal;font-stretch:normal;font-size:22.57777786px;line-height:6.25;font-family:inconsolata;-inkscape-font-specification:inconsolata;letter-spacing:0px;word-spacing:0px;fill:#000000;fill-opacity:1;stroke:none;stroke-width:0.26458332"
       d="m 145.73499,58.304017 h 2.17179 l 1.57647,13.361459 1.87414,-8.841493 h 2.32613 l 1.89618,8.863541 1.57647,-13.383507 h 2.17179 l -2.45842,16.459289 h -2.10564 l -2.23794,-9.778559 -2.22691,9.778559 h -2.10564 z" />
    <path
       inkscape:connector-curvature="0"
       id="path4981"
       style="font-style:normal;font-variant:normal;font-weight:normal;font-stretch:normal;font-size:22.57777786px;line-height:6.25;font-family:inconsolata;-inkscape-font-specification:inconsolata;letter-spacing:0px;word-spacing:0px;fill:#000000;fill-opacity:1;stroke:none;stroke-width:0.26458332"
       d="m 167.05599,68.556622 h -0.67248 q -1.77491,0 -2.67891,0.628385 -0.89296,0.617361 -0.89296,1.852083 0,1.113455 0.67248,1.730816 0.67248,0.617361 1.86311,0.617361 1.67569,0 2.6348,-1.157552 0.95912,-1.168576 0.97014,-3.219097 v -0.451996 z m 3.93568,-0.837848 v 7.044532 h -2.0395 v -1.830035 q -0.65043,1.10243 -1.64262,1.631597 -0.98116,0.518143 -2.39227,0.518143 -1.88516,0 -3.00964,-1.058334 -1.12448,-1.069357 -1.12448,-2.855295 0,-2.061545 1.37804,-3.130903 1.38906,-1.069357 4.06797,-1.069357 h 2.723 v -0.319705 q -0.011,-1.477257 -0.74965,-2.138716 -0.73863,-0.672482 -2.3592,-0.672482 -1.03629,0 -2.09462,0.297656 -1.05833,0.297656 -2.06154,0.87092 v -2.028472 q 1.12448,-0.429948 2.14974,-0.63941 1.03628,-0.220486 2.00642,-0.220486 1.53238,0 2.61276,0.451997 1.09141,0.451996 1.76389,1.355989 0.41892,0.551216 0.59531,1.367014 0.17639,0.804774 0.17639,2.425347 z" />
    <path
       inkscape:connector-curvature="0"
       id="path4983"
       style="font-style:normal;font-variant:normal;font-weight:normal;font-stretch:normal;font-size:22.57777786px;line-height:6.25;font-family:inconsolata;-inkscape-font-specification:inconsolata;letter-spacing:0px;word-spacing:0px;fill:#000000;fill-opacity:1;stroke:none;stroke-width:0.26458332"
       d="m 184.48543,67.112438 v 7.650868 h -2.0395 v -7.650868 q 0,-1.664671 -0.58428,-2.447396 -0.58429,-0.782726 -1.83004,-0.782726 -1.42213,0 -2.19384,1.014236 -0.76067,1.003212 -0.76067,2.888368 v 6.978386 h -2.02847 V 62.416083 h 2.02847 v 1.852084 q 0.54019,-1.058334 1.46623,-1.598525 0.92604,-0.551215 2.19384,-0.551215 1.88515,0 2.81119,1.245747 0.93707,1.234722 0.93707,3.748264 z" />
    <path
       inkscape:connector-curvature="0"
       id="path4985"
       style="font-style:normal;font-variant:normal;font-weight:normal;font-stretch:normal;font-size:22.57777786px;line-height:6.25;font-family:inconsolata;-inkscape-font-specification:inconsolata;letter-spacing:0px;word-spacing:0px;fill:#000000;fill-opacity:1;stroke:none;stroke-width:0.26458332"
       d="m 195.93968,68.490476 q 0,-2.282031 -0.74965,-3.461632 -0.73863,-1.190625 -2.16077,-1.190625 -1.48828,0 -2.271,1.190625 -0.78273,1.179601 -0.78273,3.461632 0,2.282031 0.78273,3.48368 0.79375,1.190625 2.29305,1.190625 1.40009,0 2.13872,-1.201649 0.74965,-1.201649 0.74965,-3.472656 z m 2.02847,5.47908 q 0,2.778125 -1.31189,4.211284 -1.31189,1.43316 -3.85851,1.43316 -0.83784,0 -1.75286,-0.15434 -0.91502,-0.15434 -1.83004,-0.451997 V 77.00124 q 1.08039,0.507118 1.96233,0.749652 0.88194,0.242535 1.62057,0.242535 1.64262,0 2.39228,-0.892969 0.74965,-0.892968 0.74965,-2.833246 v -0.08819 -1.378038 q -0.48507,1.036285 -1.32292,1.543403 -0.83784,0.507118 -2.03949,0.507118 -2.16077,0 -3.45061,-1.730816 -1.28984,-1.730816 -1.28984,-4.630208 0,-2.910417 1.28984,-4.641233 1.28984,-1.730816 3.45061,-1.730816 1.19062,0 2.01744,0.474045 0.82683,0.474045 1.34497,1.466233 v -1.598524 h 2.02847 z" />
    <path
       inkscape:connector-curvature="0"
       id="path4833"
       style="font-style:normal;font-variant:normal;font-weight:normal;font-stretch:normal;font-size:25.39999962px;line-height:6.25;font-family:Consolas;-inkscape-font-specification:Consolas;letter-spacing:0px;word-spacing:0px;fill:#000000;fill-opacity:1;stroke:none;stroke-width:0.26458332"
       d="M 25.973632,93.786125 H 22.290136 V 92.01259 h 5.866309 v 15.72617 h 3.708301 v 1.79834 h -9.983887 v -1.79834 h 4.092773 z" />
    <path
       inkscape:connector-curvature="0"
       id="path4835"
       style="font-style:normal;font-variant:normal;font-weight:normal;font-stretch:normal;font-size:25.39999962px;line-height:6.25;font-family:Consolas;-inkscape-font-specification:Consolas;letter-spacing:0px;word-spacing:0px;fill:#000000;fill-opacity:1;stroke:none;stroke-width:0.26458332"
       d="m 46.239062,102.6538 q 0,0.45889 -0.0124,0.76895 -0.0124,0.31005 -0.03721,0.58291 H 37.4458 q 0,1.90996 1.066602,2.93935 1.066601,1.01699 3.075781,1.01699 0.545703,0 1.091406,-0.0372 0.545703,-0.0496 1.054199,-0.12403 0.508496,-0.0744 0.967383,-0.16123 0.471289,-0.0992 0.868164,-0.21084 v 1.77354 q -0.880566,0.24805 -1.996777,0.39687 -1.103809,0.16123 -2.294434,0.16123 -1.599902,0 -2.75332,-0.43408 -1.153418,-0.43408 -1.897559,-1.25263 -0.731738,-0.83096 -1.091406,-2.02159 -0.347266,-1.20302 -0.347266,-2.71611 0,-1.31465 0.372071,-2.48047 0.384472,-1.178221 1.103808,-2.058788 0.731739,-0.892969 1.785938,-1.413867 1.054199,-0.520898 2.393652,-0.520898 1.302246,0 2.306836,0.409277 1.00459,0.409277 1.686719,1.16582 0.694531,0.744141 1.041797,1.823146 0.359668,1.0666 0.359668,2.39365 z m -2.244825,-0.31006 q 0.03721,-0.83095 -0.16123,-1.51308 -0.198438,-0.69453 -0.620117,-1.190628 -0.409278,-0.496094 -1.029395,-0.768946 -0.620117,-0.285254 -1.438672,-0.285254 -0.706933,0 -1.289843,0.272852 -0.582911,0.272851 -1.00459,0.768945 -0.42168,0.496091 -0.682129,1.190621 -0.260449,0.69454 -0.322461,1.52549 z" />
    <path
       inkscape:connector-curvature="0"
       id="path4837"
       style="font-style:normal;font-variant:normal;font-weight:normal;font-stretch:normal;font-size:25.39999962px;line-height:6.25;font-family:Consolas;-inkscape-font-specification:Consolas;letter-spacing:0px;word-spacing:0px;fill:#000000;fill-opacity:1;stroke:none;stroke-width:0.26458332"
       d="m 60.935837,109.5371 h -2.864942 l -3.361035,-4.7501 -3.323828,4.7501 h -2.790527 l 4.824511,-6.25078 -4.601269,-6.201171 h 2.765723 l 3.274218,4.787301 3.212207,-4.787301 h 2.666504 l -4.675683,6.250781 z" />
    <path
       inkscape:connector-curvature="0"
       id="path4839"
       style="font-style:normal;font-variant:normal;font-weight:normal;font-stretch:normal;font-size:25.39999962px;line-height:6.25;font-family:Consolas;-inkscape-font-specification:Consolas;letter-spacing:0px;word-spacing:0px;fill:#000000;fill-opacity:1;stroke:none;stroke-width:0.26458332"
       d="m 71.701073,109.5371 -0.04961,-1.67431 q -1.016992,1.00459 -2.071191,1.45107 -1.041797,0.44648 -2.195215,0.44648 -1.066602,0 -1.823145,-0.27285 -0.756542,-0.27285 -1.252636,-0.74414 -0.483692,-0.48369 -0.719336,-1.12861 -0.223242,-0.64492 -0.223242,-1.40147 0,-1.87275 1.389062,-2.92695 1.401465,-1.0666 4.129981,-1.0666 h 2.579687 v -1.09141 q 0,-1.10381 -0.706934,-1.76113 -0.706933,-0.669727 -2.158007,-0.669727 -1.0542,0 -2.083594,0.235645 -1.016992,0.235645 -2.108398,0.669727 v -1.947168 q 0.409277,-0.148829 0.905371,-0.285254 0.508496,-0.148828 1.066601,-0.26045 0.558106,-0.111621 1.16582,-0.173632 0.607715,-0.07441 1.227832,-0.07441 1.128614,0 2.033985,0.248046 0.905371,0.248047 1.525488,0.756543 0.63252,0.508497 0.967383,1.277442 0.334863,0.768945 0.334863,1.810738 v 8.58242 z m -0.235645,-5.66787 H 68.72451 q -0.806152,0 -1.389062,0.16123 -0.582911,0.16123 -0.954981,0.45889 -0.37207,0.29765 -0.558105,0.71933 -0.173633,0.40928 -0.173633,0.93018 0,0.35967 0.111621,0.69453 0.111621,0.32246 0.359668,0.58291 0.248047,0.24805 0.644922,0.39688 0.396875,0.14882 0.967383,0.14882 0.74414,0 1.699121,-0.44648 0.967382,-0.45889 2.033984,-1.43867 z" />
    <path
       inkscape:connector-curvature="0"
       id="path4841"
       style="font-style:normal;font-variant:normal;font-weight:normal;font-stretch:normal;font-size:25.39999962px;line-height:6.25;font-family:Consolas;-inkscape-font-specification:Consolas;letter-spacing:0px;word-spacing:0px;fill:#000000;fill-opacity:1;stroke:none;stroke-width:0.26458332"
       d="m 77.691406,97.085149 h 1.922363 l 0.08682,2.009179 q 0.545703,-0.644921 1.054199,-1.066601 0.508496,-0.434082 0.992188,-0.694531 0.496093,-0.26045 1.004589,-0.359668 0.508496,-0.111621 1.0542,-0.111621 1.922363,0 2.902148,1.141015 0.992187,1.128613 0.992187,3.410648 v 8.12353 h -2.15801 v -7.9499 q 0,-1.46348 -0.545703,-2.158008 -0.545704,-0.706934 -1.624707,-0.706934 -0.396875,0 -0.781348,0.124024 -0.37207,0.111621 -0.781348,0.409277 -0.409277,0.285254 -0.892968,0.781351 -0.47129,0.49609 -1.066602,1.24023 v 8.25996 h -2.158008 z" />
    <path
       inkscape:connector-curvature="0"
       id="path4843"
       style="font-style:normal;font-variant:normal;font-weight:normal;font-stretch:normal;font-size:25.39999962px;line-height:6.25;font-family:Consolas;-inkscape-font-specification:Consolas;letter-spacing:0px;word-spacing:0px;fill:#000000;fill-opacity:1;stroke:none;stroke-width:0.26458332"
       d="m 91.048724,103.57157 q 0,-1.5875 0.434082,-2.81533 0.434082,-1.240232 1.227832,-2.083591 0.806153,-0.855762 1.922364,-1.289844 1.128613,-0.446484 2.505273,-0.446484 0.595313,0 1.16582,0.07441 0.58291,0.07441 1.141016,0.235644 V 92.01259 h 2.170409 v 17.52451 h -1.934765 l -0.07441,-2.35644 q -0.905371,1.31464 -1.95957,1.94716 -1.054199,0.63252 -2.282031,0.63252 -1.066602,0 -1.885156,-0.44648 -0.806153,-0.44648 -1.351856,-1.25264 -0.533301,-0.81855 -0.806152,-1.95957 -0.272852,-1.14101 -0.272852,-2.53008 z m 2.207617,-0.13642 q 0,2.25723 0.657325,3.37344 0.669726,1.1038 1.885156,1.1038 0.818555,0 1.723926,-0.73173 0.917773,-0.73174 1.922363,-2.17041 v -5.779496 q -0.533301,-0.248047 -1.178223,-0.37207 -0.644922,-0.136426 -1.277441,-0.136426 -1.761133,0 -2.75332,1.141016 -0.979786,1.141016 -0.979786,3.571876 z" />
    <path
       inkscape:connector-curvature="0"
       id="path4845"
       style="font-style:normal;font-variant:normal;font-weight:normal;font-stretch:normal;font-size:25.39999962px;line-height:6.25;font-family:Consolas;-inkscape-font-specification:Consolas;letter-spacing:0px;word-spacing:0px;fill:#000000;fill-opacity:1;stroke:none;stroke-width:0.26458332"
       d="m 116.18828,102.6538 q 0,0.45889 -0.0124,0.76895 -0.0124,0.31005 -0.0372,0.58291 h -8.74366 q 0,1.90996 1.06661,2.93935 1.0666,1.01699 3.07578,1.01699 0.5457,0 1.0914,-0.0372 0.54571,-0.0496 1.0542,-0.12403 0.5085,-0.0744 0.96739,-0.16123 0.47128,-0.0992 0.86816,-0.21084 v 1.77354 q -0.88057,0.24805 -1.99678,0.39687 -1.10381,0.16123 -2.29443,0.16123 -1.5999,0 -2.75332,-0.43408 -1.15342,-0.43408 -1.89756,-1.25263 -0.73174,-0.83096 -1.09141,-2.02159 -0.34726,-1.20302 -0.34726,-2.71611 0,-1.31465 0.37207,-2.48047 0.38447,-1.178221 1.10381,-2.058788 0.73174,-0.892969 1.78593,-1.413867 1.0542,-0.520898 2.39366,-0.520898 1.30224,0 2.30683,0.409277 1.00459,0.409277 1.68672,1.16582 0.69453,0.744141 1.0418,1.823146 0.35967,1.0666 0.35967,2.39365 z m -2.24483,-0.31006 q 0.0372,-0.83095 -0.16123,-1.51308 -0.19844,-0.69453 -0.62012,-1.190628 -0.40927,-0.496094 -1.02939,-0.768946 -0.62012,-0.285254 -1.43867,-0.285254 -0.70694,0 -1.28985,0.272852 -0.58291,0.272851 -1.00459,0.768945 -0.42167,0.496091 -0.68212,1.190621 -0.26045,0.69454 -0.32247,1.52549 z" />
    <path
       inkscape:connector-curvature="0"
       id="path4847"
       style="font-style:normal;font-variant:normal;font-weight:normal;font-stretch:normal;font-size:25.39999962px;line-height:6.25;font-family:Consolas;-inkscape-font-specification:Consolas;letter-spacing:0px;word-spacing:0px;fill:#000000;fill-opacity:1;stroke:none;stroke-width:0.26458332"
       d="m 120.16943,97.085149 h 1.97197 l 0.062,2.294433 q 1.10381,-1.32705 2.17041,-1.922363 1.07901,-0.595312 2.17042,-0.595312 1.93476,0 2.92695,1.252636 1.00459,1.252637 0.93017,3.720707 h -2.18281 q 0.0372,-1.63711 -0.48369,-2.368851 -0.5085,-0.744141 -1.50068,-0.744141 -0.43409,0 -0.88057,0.161231 -0.43408,0.148828 -0.90537,0.496093 -0.45889,0.334864 -0.97979,0.868168 -0.52089,0.5333 -1.11621,1.28984 v 7.99951 h -2.18281 z" />
    <path
       inkscape:connector-curvature="0"
       id="path4849"
       style="font-style:normal;font-variant:normal;font-weight:normal;font-stretch:normal;font-size:25.39999962px;line-height:6.25;font-family:Consolas;-inkscape-font-specification:Consolas;letter-spacing:0px;word-spacing:0px;fill:#000000;fill-opacity:1;stroke:none;stroke-width:0.26458332"
       d="m 159.06318,93.327239 -1.0914,16.209861 h -2.86494 l -2.00918,-5.76709 -0.55811,-1.84795 -0.58291,1.99678 -1.86035,5.61826 h -2.76572 l -1.11621,-16.209861 h 2.08359 l 0.63252,11.025681 0.18603,3.02617 0.78135,-2.56728 1.95957,-6.015138 h 1.52549 l 2.25723,6.449218 0.75654,2.1332 0.0496,-2.23242 0.64492,-11.819431 z" />
    <path
       inkscape:connector-curvature="0"
       id="path4851"
       style="font-style:normal;font-variant:normal;font-weight:normal;font-stretch:normal;font-size:25.39999962px;line-height:6.25;font-family:Consolas;-inkscape-font-specification:Consolas;letter-spacing:0px;word-spacing:0px;fill:#000000;fill-opacity:1;stroke:none;stroke-width:0.26458332"
       d="m 169.62997,109.5371 -0.0496,-1.67431 q -1.01699,1.00459 -2.07119,1.45107 -1.04179,0.44648 -2.19521,0.44648 -1.0666,0 -1.82315,-0.27285 -0.75654,-0.27285 -1.25263,-0.74414 -0.48369,-0.48369 -0.71934,-1.12861 -0.22324,-0.64492 -0.22324,-1.40147 0,-1.87275 1.38906,-2.92695 1.40147,-1.0666 4.12998,-1.0666 h 2.57969 v -1.09141 q 0,-1.10381 -0.70693,-1.76113 -0.70694,-0.669727 -2.15801,-0.669727 -1.0542,0 -2.0836,0.235645 -1.01699,0.235645 -2.10839,0.669727 v -1.947168 q 0.40927,-0.148829 0.90537,-0.285254 0.50849,-0.148828 1.0666,-0.26045 0.5581,-0.111621 1.16582,-0.173632 0.60771,-0.07441 1.22783,-0.07441 1.12861,0 2.03399,0.248046 0.90537,0.248047 1.52548,0.756543 0.63252,0.508497 0.96739,1.277442 0.33486,0.768945 0.33486,1.810738 v 8.58242 z m -0.23564,-5.66787 h -2.74092 q -0.80615,0 -1.38906,0.16123 -0.58291,0.16123 -0.95498,0.45889 -0.37207,0.29765 -0.55811,0.71933 -0.17363,0.40928 -0.17363,0.93018 0,0.35967 0.11162,0.69453 0.11162,0.32246 0.35967,0.58291 0.24805,0.24805 0.64492,0.39688 0.39688,0.14882 0.96738,0.14882 0.74414,0 1.69913,-0.44648 0.96738,-0.45889 2.03398,-1.43867 z" />
    <path
       inkscape:connector-curvature="0"
       id="path4853"
       style="font-style:normal;font-variant:normal;font-weight:normal;font-stretch:normal;font-size:25.39999962px;line-height:6.25;font-family:Consolas;-inkscape-font-specification:Consolas;letter-spacing:0px;word-spacing:0px;fill:#000000;fill-opacity:1;stroke:none;stroke-width:0.26458332"
       d="m 175.6203,97.085149 h 1.92236 l 0.0868,2.009179 q 0.5457,-0.644921 1.0542,-1.066601 0.5085,-0.434082 0.99219,-0.694531 0.49609,-0.26045 1.00459,-0.359668 0.50849,-0.111621 1.0542,-0.111621 1.92236,0 2.90214,1.141015 0.99219,1.128613 0.99219,3.410648 v 8.12353 h -2.15801 v -7.9499 q 0,-1.46348 -0.5457,-2.158008 -0.5457,-0.706934 -1.62471,-0.706934 -0.39687,0 -0.78134,0.124024 -0.37207,0.111621 -0.78135,0.409277 -0.40928,0.285254 -0.89297,0.781351 -0.47129,0.49609 -1.0666,1.24023 v 8.25996 h -2.15801 z" />
    <path
       inkscape:connector-curvature="0"
       id="path4855"
       style="font-style:normal;font-variant:normal;font-weight:normal;font-stretch:normal;font-size:25.39999962px;line-height:6.25;font-family:Consolas;-inkscape-font-specification:Consolas;letter-spacing:0px;word-spacing:0px;fill:#000000;fill-opacity:1;stroke:none;stroke-width:0.26458332"
       d="m 198.57705,98.846282 q 0.34726,0.434082 0.5333,1.016992 0.19844,0.570506 0.19844,1.240236 0,0.96738 -0.35967,1.77353 -0.34727,0.79375 -0.99219,1.36426 -0.64492,0.57051 -1.55029,0.89297 -0.89297,0.31006 -1.97198,0.31006 -0.78134,0 -1.46347,-0.16123 -0.68213,-0.17363 -1.07901,-0.42168 -0.23564,0.34726 -0.39687,0.65732 -0.16123,0.31006 -0.16123,0.69453 0,0.47129 0.44648,0.78135 0.45889,0.31006 1.20303,0.33486 l 3.27422,0.12403 q 0.93018,0.0248 1.71152,0.23564 0.79375,0.21084 1.35186,0.60772 0.57051,0.39687 0.88056,0.97978 0.32247,0.58291 0.32247,1.35186 0,0.83095 -0.35967,1.5751 -0.35967,0.74414 -1.11621,1.30224 -0.74414,0.57051 -1.89756,0.90537 -1.15342,0.33487 -2.74092,0.33487 -1.51309,0 -2.57969,-0.24805 -1.0542,-0.23565 -1.73633,-0.66973 -0.68212,-0.42168 -0.99218,-1.01699 -0.31006,-0.58291 -0.31006,-1.28984 0,-0.90537 0.42168,-1.5875 0.42168,-0.68213 1.30224,-1.31465 -0.32246,-0.14883 -0.5581,-0.37207 -0.23565,-0.22324 -0.38447,-0.48369 -0.14883,-0.27285 -0.22325,-0.57051 -0.0744,-0.29766 -0.0744,-0.58291 0,-0.80615 0.37207,-1.47588 0.38447,-0.66973 0.90537,-1.26504 -0.23564,-0.28525 -0.42168,-0.5581 -0.17363,-0.27286 -0.31006,-0.58291 -0.12402,-0.32247 -0.19843,-0.68213 -0.062,-0.37207 -0.062,-0.84336 0,-0.96739 0.34727,-1.761136 0.35967,-0.806152 0.99219,-1.37666 0.64492,-0.570508 1.53789,-0.880566 0.90537,-0.322461 1.99677,-0.322461 0.45889,0 0.88057,0.06201 0.42168,0.06201 0.74414,0.161231 h 4.51445 v 1.761133 z m -7.49102,12.489158 q 0,0.88057 0.91778,1.27744 0.91777,0.40928 2.55488,0.40928 1.02939,0 1.72392,-0.18603 0.70694,-0.18604 1.12862,-0.4961 0.43408,-0.29765 0.62011,-0.69453 0.18604,-0.38447 0.18604,-0.79375 0,-0.75654 -0.62012,-1.11621 -0.62011,-0.35967 -1.89756,-0.42168 l -3.24941,-0.11162 q -0.40928,0.27285 -0.68213,0.5333 -0.26045,0.26045 -0.40928,0.5209 -0.14882,0.27285 -0.21084,0.5333 -0.062,0.27285 -0.062,0.5457 z m 0.65733,-10.18232 q 0,0.59531 0.19843,1.0914 0.19844,0.4961 0.55811,0.84336 0.35967,0.34727 0.84336,0.54571 0.49609,0.18603 1.0914,0.18603 0.64493,0 1.14102,-0.21084 0.5085,-0.22324 0.84336,-0.59531 0.34727,-0.37207 0.5209,-0.85576 0.18603,-0.48369 0.18603,-1.00459 0,-0.59531 -0.19843,-1.09141 -0.19844,-0.496092 -0.55811,-0.843358 -0.35967,-0.347266 -0.85576,-0.533301 -0.48369,-0.198437 -1.07901,-0.198437 -0.64492,0 -1.15341,0.223242 -0.4961,0.223242 -0.84336,0.595312 -0.33487,0.359668 -0.5209,0.843362 -0.17363,0.48369 -0.17363,1.00459 z" />
    <path
       inkscape:connector-curvature="0"
       id="path4734"
       style="font-style:normal;font-variant:normal;font-weight:normal;font-stretch:normal;font-size:25.39999962px;line-height:6.25;font-family:'Trebuchet MS';-inkscape-font-specification:'Trebuchet MS';letter-spacing:0px;word-spacing:0px;fill:#000000;fill-opacity:1;stroke:none;stroke-width:0.26458332"
       d="m 27.89186,143.9548 v -14.96963 h 2.356445 v 14.57275 q 0,1.0666 0.607715,1.68672 0.620117,0.60772 1.612305,0.60772 v 2.10839 q -4.576465,0 -4.576465,-4.00595 z" />
    <path
       inkscape:connector-curvature="0"
       id="path4736"
       style="font-style:normal;font-variant:normal;font-weight:normal;font-stretch:normal;font-size:25.39999962px;line-height:6.25;font-family:'Trebuchet MS';-inkscape-font-specification:'Trebuchet MS';letter-spacing:0px;word-spacing:0px;fill:#000000;fill-opacity:1;stroke:none;stroke-width:0.26458332"
       d="m 46.383753,141.3007 h -9.574609 q 0,2.33164 1.277441,3.58427 1.128614,1.09141 2.902149,1.09141 2.021582,0 3.373437,-1.17822 l 0.992188,1.69912 q -0.545703,0.5457 -1.674317,0.94258 -1.413867,0.52089 -3.150195,0.52089 -2.505273,0 -4.254004,-1.69912 -1.947168,-1.87275 -1.947168,-5.03535 0,-3.28662 1.996778,-5.27099 1.785937,-1.77354 4.229199,-1.77354 2.840136,0 4.452441,1.5999 1.562695,1.53789 1.562695,4.08037 0,0.78135 -0.186035,1.43868 z m -5.71748,-5.13457 q -1.575098,0 -2.641699,1.01699 -1.016993,0.96738 -1.153418,2.40605 h 7.354589 q 0,-1.42627 -0.892968,-2.38125 -0.979785,-1.04179 -2.666504,-1.04179 z" />
    <path
       inkscape:connector-curvature="0"
       id="path4738"
       style="font-style:normal;font-variant:normal;font-weight:normal;font-stretch:normal;font-size:25.39999962px;line-height:6.25;font-family:'Trebuchet MS';-inkscape-font-specification:'Trebuchet MS';letter-spacing:0px;word-spacing:0px;fill:#000000;fill-opacity:1;stroke:none;stroke-width:0.26458332"
       d="m 57.124186,147.71271 -3.621484,-4.83692 -3.237012,4.83692 h -2.75332 l 4.824511,-6.79649 -4.427636,-6.48642 h 2.654101 l 2.976563,4.56406 3.33623,-4.56406 h 2.604492 l -4.824511,6.48642 5.283398,6.79649 z" />
    <path
       inkscape:connector-curvature="0"
       id="path4740"
       style="font-style:normal;font-variant:normal;font-weight:normal;font-stretch:normal;font-size:25.39999962px;line-height:6.25;font-family:'Trebuchet MS';-inkscape-font-specification:'Trebuchet MS';letter-spacing:0px;word-spacing:0px;fill:#000000;fill-opacity:1;stroke:none;stroke-width:0.26458332"
       d="m 69.290883,146.18722 q -1.413867,1.77353 -4.328418,1.77353 -1.562695,0 -2.716113,-1.12861 -1.141016,-1.14101 -1.141016,-2.82773 0,-2.02159 1.761133,-3.41065 1.773535,-1.40146 4.514453,-1.40146 0.744141,0 1.686719,0.32246 0,-3.22461 -2.877344,-3.22461 -2.207617,0 -3.398242,1.19062 l -0.992188,-1.97197 q 0.669727,-0.5457 1.84795,-0.93017 1.190625,-0.39688 2.269628,-0.39688 2.889747,0 4.191993,1.31465 1.314648,1.31465 1.314648,4.17959 v 4.7625 q 0,1.74873 1.041797,2.33164 v 1.17822 q -1.438672,0 -2.158008,-0.40928 -0.706933,-0.40927 -1.016992,-1.35185 z m -0.223242,-4.99815 q -1.116211,-0.24804 -1.562696,-0.24804 -1.785937,0 -2.91455,0.91777 -1.128614,0.91777 -1.128614,2.17041 0,2.07119 2.443262,2.07119 1.785938,0 3.162598,-1.69912 z" />
    <path
       inkscape:connector-curvature="0"
       id="path4742"
       style="font-style:normal;font-variant:normal;font-weight:normal;font-stretch:normal;font-size:25.39999962px;line-height:6.25;font-family:'Trebuchet MS';-inkscape-font-specification:'Trebuchet MS';letter-spacing:0px;word-spacing:0px;fill:#000000;fill-opacity:1;stroke:none;stroke-width:0.26458332"
       d="m 83.305531,147.71271 v -7.72666 q 0,-2.1208 -0.644922,-2.96416 -0.63252,-0.85576 -2.133203,-0.85576 -0.806153,0 -1.686719,0.48369 -0.880566,0.48369 -1.351856,1.19062 v 9.87227 H 75.132386 V 134.4298 h 1.612305 l 0.74414,1.71152 q 1.165821,-1.95957 3.80752,-1.95957 4.365625,0 4.365625,5.3082 v 8.22276 z" />
    <path
       inkscape:connector-curvature="0"
       id="path4744"
       style="font-style:normal;font-variant:normal;font-weight:normal;font-stretch:normal;font-size:25.39999962px;line-height:6.25;font-family:'Trebuchet MS';-inkscape-font-specification:'Trebuchet MS';letter-spacing:0px;word-spacing:0px;fill:#000000;fill-opacity:1;stroke:none;stroke-width:0.26458332"
       d="m 97.444202,147.70031 v -0.97979 q -1.227832,1.22783 -3.571874,1.22783 -2.492872,0 -4.043164,-1.78594 -1.550293,-1.78593 -1.550293,-4.7625 0,-2.98896 1.785937,-5.09736 1.785938,-2.1208 4.254004,-2.1208 2.058789,0 3.12539,0.96738 v -6.16396 h 2.356446 v 18.71514 z m 0,-10.19473 q -0.892968,-1.33945 -2.443261,-1.33945 -1.897559,0 -3.075781,1.41386 -1.165821,1.41387 -1.165821,3.59668 0,4.79971 4.365625,4.79971 0.558106,0 1.339453,-0.34727 0.781348,-0.35966 0.979785,-0.75654 z" />
    <path
       inkscape:connector-curvature="0"
       id="path4746"
       style="font-style:normal;font-variant:normal;font-weight:normal;font-stretch:normal;font-size:25.39999962px;line-height:6.25;font-family:'Trebuchet MS';-inkscape-font-specification:'Trebuchet MS';letter-spacing:0px;word-spacing:0px;fill:#000000;fill-opacity:1;stroke:none;stroke-width:0.26458332"
       d="m 114.3486,141.3007 h -9.57461 q 0,2.33164 1.27744,3.58427 1.12861,1.09141 2.90215,1.09141 2.02158,0 3.37343,-1.17822 l 0.99219,1.69912 q -0.5457,0.5457 -1.67431,0.94258 -1.41387,0.52089 -3.1502,0.52089 -2.50527,0 -4.254,-1.69912 -1.94717,-1.87275 -1.94717,-5.03535 0,-3.28662 1.99678,-5.27099 1.78593,-1.77354 4.2292,-1.77354 2.84013,0 4.45244,1.5999 1.56269,1.53789 1.56269,4.08037 0,0.78135 -0.18603,1.43868 z m -5.71748,-5.13457 q -1.5751,0 -2.6417,1.01699 -1.01699,0.96738 -1.15342,2.40605 h 7.35459 q 0,-1.42627 -0.89297,-2.38125 -0.97978,-1.04179 -2.6665,-1.04179 z" />
    <path
       inkscape:connector-curvature="0"
       id="path4748"
       style="font-style:normal;font-variant:normal;font-weight:normal;font-stretch:normal;font-size:25.39999962px;line-height:6.25;font-family:'Trebuchet MS';-inkscape-font-specification:'Trebuchet MS';letter-spacing:0px;word-spacing:0px;fill:#000000;fill-opacity:1;stroke:none;stroke-width:0.26458332"
       d="m 124.22087,136.69943 q -0.76895,-0.5333 -1.5503,-0.5333 -1.25263,0 -2.19521,1.15341 -0.93018,1.15342 -0.93018,2.77813 v 7.61504 h -2.35644 V 134.4298 h 2.35644 v 2.1208 q 1.28985,-2.36885 3.83233,-2.36885 0.63252,0 1.82314,0.22324 z" />
    <path
       inkscape:connector-curvature="0"
       id="path4750"
       style="font-style:normal;font-variant:normal;font-weight:normal;font-stretch:normal;font-size:25.39999962px;line-height:6.25;font-family:'Trebuchet MS';-inkscape-font-specification:'Trebuchet MS';letter-spacing:0px;word-spacing:0px;fill:#000000;fill-opacity:1;stroke:none;stroke-width:0.26458332"
       d="m 148.66588,147.96075 h -0.78134 l -4.32842,-12.52636 -4.04317,12.52636 h -0.78134 l -5.72989,-18.41748 h 2.57969 l 3.64629,12.6876 3.99355,-12.6876 h 0.86817 l 3.94394,12.6628 3.7083,-12.6628 h 2.57969 z" />
    <path
       inkscape:connector-curvature="0"
       id="path4752"
       style="font-style:normal;font-variant:normal;font-weight:normal;font-stretch:normal;font-size:25.39999962px;line-height:6.25;font-family:'Trebuchet MS';-inkscape-font-specification:'Trebuchet MS';letter-spacing:0px;word-spacing:0px;fill:#000000;fill-opacity:1;stroke:none;stroke-width:0.26458332"
       d="m 162.25886,146.18722 q -1.41387,1.77353 -4.32842,1.77353 -1.56269,0 -2.71611,-1.12861 -1.14102,-1.14101 -1.14102,-2.82773 0,-2.02159 1.76113,-3.41065 1.77354,-1.40146 4.51446,-1.40146 0.74414,0 1.68672,0.32246 0,-3.22461 -2.87735,-3.22461 -2.20761,0 -3.39824,1.19062 l -0.99219,-1.97197 q 0.66973,-0.5457 1.84795,-0.93017 1.19063,-0.39688 2.26963,-0.39688 2.88975,0 4.19199,1.31465 1.31465,1.31465 1.31465,4.17959 v 4.7625 q 0,1.74873 1.0418,2.33164 v 1.17822 q -1.43867,0 -2.15801,-0.40928 -0.70693,-0.40927 -1.01699,-1.35185 z m -0.22324,-4.99815 q -1.11621,-0.24804 -1.5627,-0.24804 -1.78594,0 -2.91455,0.91777 -1.12861,0.91777 -1.12861,2.17041 0,2.07119 2.44326,2.07119 1.78594,0 3.1626,-1.69912 z" />
    <path
       inkscape:connector-curvature="0"
       id="path4754"
       style="font-style:normal;font-variant:normal;font-weight:normal;font-stretch:normal;font-size:25.39999962px;line-height:6.25;font-family:'Trebuchet MS';-inkscape-font-specification:'Trebuchet MS';letter-spacing:0px;word-spacing:0px;fill:#000000;fill-opacity:1;stroke:none;stroke-width:0.26458332"
       d="m 176.27349,147.71271 v -7.72666 q 0,-2.1208 -0.64492,-2.96416 -0.63252,-0.85576 -2.1332,-0.85576 -0.80615,0 -1.68672,0.48369 -0.88057,0.48369 -1.35185,1.19062 v 9.87227 h -2.35645 V 134.4298 h 1.61231 l 0.74414,1.71152 q 1.16582,-1.95957 3.80752,-1.95957 4.36562,0 4.36562,5.3082 v 8.22276 z" />
    <path
       inkscape:connector-curvature="0"
       id="path4756"
       style="font-style:normal;font-variant:normal;font-weight:normal;font-stretch:normal;font-size:25.39999962px;line-height:6.25;font-family:'Trebuchet MS';-inkscape-font-specification:'Trebuchet MS';letter-spacing:0px;word-spacing:0px;fill:#000000;fill-opacity:1;stroke:none;stroke-width:0.26458332"
       d="m 181.50728,151.34659 1.27745,-1.88515 q 2.05878,1.37666 3.79511,1.37666 1.5999,0 2.51768,-0.55811 0.93017,-0.5457 0.93017,-1.36426 0,-1.6123 -2.33164,-1.6123 -0.39687,0 -1.43867,0.19844 -1.0418,0.19844 -1.62471,0.19844 -2.82773,0 -2.82773,-2.13321 0,-0.65732 0.65732,-1.19062 0.66973,-0.5333 1.64952,-0.76895 -2.80293,-1.31465 -2.80293,-4.56406 0,-2.08359 1.45107,-3.47266 1.45107,-1.38906 3.58428,-1.38906 1.95957,0 3.06338,0.80615 l 1.17822,-1.41386 1.53789,1.45107 -1.41387,1.0666 q 0.90537,1.17822 0.90537,3.07578 0,2.00918 -1.25263,3.37344 -1.25264,1.36426 -3.28662,1.5627 l -1.94717,0.19843 q -0.34727,0.0372 -0.93018,0.27285 -0.58291,0.22325 -0.58291,0.59532 0,0.50849 1.21543,0.50849 0.5333,0 1.66192,-0.18603 1.12861,-0.19844 1.67431,-0.19844 1.95957,0 3.05098,0.94258 1.10381,0.93017 1.10381,2.59209 0,1.83555 -1.64951,2.96416 -1.63711,1.12861 -4.15479,1.12861 -1.28984,0 -2.71611,-0.45888 -1.42627,-0.45889 -2.29444,-1.11622 z m 4.99815,-15.26728 q -1.22783,0 -2.00918,0.86816 -0.76895,0.86817 -0.76895,2.1084 0,1.38906 0.74414,2.30684 0.75655,0.90537 2.03399,0.90537 1.25264,0 1.95957,-0.88057 0.70693,-0.89297 0.70693,-2.33164 0,-1.24023 -0.76894,-2.1084 -0.75655,-0.86816 -1.89756,-0.86816 z" />
    <text
       id="text858"
       y="219.52817"
       x="8.0256681"
       style="font-style:normal;font-weight:normal;font-size:6.3499999px;line-height:6.25;font-family:sans-serif;letter-spacing:0px;word-spacing:0px;fill:#000000;fill-opacity:1;stroke:none;stroke-width:0.26458332"
       xml:space="preserve"><tspan
         style="font-style:normal;font-variant:normal;font-weight:normal;font-stretch:normal;font-size:22.57777786px;line-height:6.25;font-family:'Courier New';-inkscape-font-specification:'Courier New';stroke-width:0.26458332"
         y="219.52817"
         x="8.0256681"
         id="tspan856"
         sodipodi:role="line">Alexander Wang</tspan></text>
    <text
       xml:space="preserve"
       style="font-style:normal;font-weight:normal;font-size:6.3499999px;line-height:6.25;font-family:sans-serif;letter-spacing:0px;word-spacing:0px;fill:#000000;fill-opacity:1;stroke:none;stroke-width:0.26458332"
       x="11.427454"
       y="187.40021"
       id="text862"><tspan
         sodipodi:role="line"
         id="tspan860"
         x="11.427454"
         y="187.40021"
         style="font-style:normal;font-variant:normal;font-weight:normal;font-stretch:normal;font-size:22.57777786px;line-height:6.25;font-family:Verdana;-inkscape-font-specification:Verdana;stroke-width:0.26458332">Alexander Wang</tspan></text>
    <path
       d="m 28.973423,20.678242 h 1.7272 v 15.5448 q 0,0.9906 0.3556,1.2954 0.3556,0.3048 0.8636,0.3048 0.4572,0 0.9144,-0.1016 0.4572,-0.1016 0.7874,-0.2032 l 0.3048,1.397 q -0.4826,0.2032 -1.1938,0.3302 -0.6858,0.127 -1.1938,0.127 -1.1684,0 -1.8796,-0.6858 -0.6858,-0.6858 -0.6858,-1.8796 z"
       style="font-style:normal;font-variant:normal;font-weight:normal;font-stretch:normal;font-size:25.39999962px;line-height:6.25;font-family:Raleway;-inkscape-font-specification:Raleway;letter-spacing:0px;word-spacing:0px;fill:#000000;fill-opacity:1;stroke:none;stroke-width:0.26458332"
       id="path3792"
       inkscape:connector-curvature="0" />
    <path
       d="m 41.507925,39.474242 q -1.4224,0 -2.6416,-0.5334 -1.2192,-0.5588 -2.1082,-1.4986 -0.889,-0.9652 -1.397,-2.2098 -0.4826,-1.2446 -0.4826,-2.667 0,-1.8542 0.8382,-3.4036 0.8636,-1.5494 2.3622,-2.4638 1.4986,-0.9398 3.4036,-0.9398 1.9558,0 3.4036,0.9398 1.4732,0.9398 2.3114,2.4892 0.8382,1.524 0.8382,3.3528 0,0.2032 0,0.4064 0,0.1778 -0.0254,0.2794 h -11.3284 q 0.127,1.4224 0.7874,2.54 0.6858,1.0922 1.7526,1.7526 1.0922,0.635 2.3622,0.635 1.2954,0 2.4384,-0.6604 1.1684,-0.6604 1.6256,-1.7272 l 1.4986,0.4064 q -0.4064,0.9398 -1.2446,1.7018 -0.8382,0.762 -1.9812,1.1938 -1.1176,0.4064 -2.413,0.4064 z m -4.8768,-7.493 h 9.779 q -0.1016,-1.4478 -0.7874,-2.54 -0.6604,-1.0922 -1.7526,-1.7018 -1.0668,-0.635 -2.3622,-0.635 -1.2954,0 -2.3622,0.635 -1.0668,0.6096 -1.7526,1.7272 -0.6604,1.0922 -0.762,2.5146 z"
       style="font-style:normal;font-variant:normal;font-weight:normal;font-stretch:normal;font-size:25.39999962px;line-height:6.25;font-family:Raleway;-inkscape-font-specification:Raleway;letter-spacing:0px;word-spacing:0px;fill:#000000;fill-opacity:1;stroke:none;stroke-width:0.26458332"
       id="path3794"
       inkscape:connector-curvature="0" />
    <path
       d="m 50.635652,25.986842 3.8862,5.1816 0.2032,0.381 0.2032,-0.381 3.8608,-5.1816 h 1.9558 l -5.0292,6.6548 5.0292,6.5786 h -1.9558 l -3.8608,-5.1562 -0.2032,-0.3556 -0.2032,0.3556 -3.8608,5.1562 h -1.9558 l 5.0038,-6.5786 -5.0038,-6.6548 z"
       style="font-style:normal;font-variant:normal;font-weight:normal;font-stretch:normal;font-size:25.39999962px;line-height:6.25;font-family:Raleway;-inkscape-font-specification:Raleway;letter-spacing:0px;word-spacing:0px;fill:#000000;fill-opacity:1;stroke:none;stroke-width:0.26458332"
       id="path3796"
       inkscape:connector-curvature="0" />
    <path
       d="m 61.812843,35.410242 q 0,-1.2446 0.7112,-2.1336 0.7112,-0.9144 1.9558,-1.397 1.27,-0.508 2.921,-0.508 0.9652,0 2.0066,0.1524 1.0414,0.1524 1.8542,0.4572 v -1.1176 q 0,-1.6764 -0.9906,-2.667 -0.9906,-0.9906 -2.7432,-0.9906 -1.0668,0 -2.1082,0.4064 -1.016,0.381 -2.1336,1.143 l -0.6604,-1.2192 q 1.2954,-0.889 2.54,-1.3208 1.2446,-0.4572 2.54,-0.4572 2.4384,0 3.8608,1.397 1.4224,1.397 1.4224,3.8608 v 6.1214 q 0,0.3556 0.1524,0.5334 0.1524,0.1524 0.4826,0.1778 v 1.3716 q -0.2794,0.0254 -0.4826,0.0508 -0.2032,0.0254 -0.3048,0 -0.635,-0.0254 -0.9652,-0.4064 -0.3302,-0.381 -0.3556,-0.8128 l -0.0254,-0.9652 q -0.889,1.143 -2.3114,1.778 -1.4224,0.6096 -2.8956,0.6096 -1.27,0 -2.3114,-0.5334 -1.016,-0.5588 -1.6002,-1.4732 -0.5588,-0.9398 -0.5588,-2.0574 z m 8.8646,1.016 q 0.2794,-0.3556 0.4318,-0.6858 0.1524,-0.3302 0.1524,-0.5842 v -1.9304 q -0.8636,-0.3302 -1.8034,-0.508 -0.9144,-0.1778 -1.8542,-0.1778 -1.8542,0 -2.9972,0.7366 -1.143,0.7366 -1.143,2.0066 0,0.7366 0.381,1.397 0.381,0.635 1.1176,1.0668 0.7366,0.4064 1.7272,0.4064 1.2446,0 2.3114,-0.4826 1.0922,-0.4826 1.6764,-1.2446 z"
       style="font-style:normal;font-variant:normal;font-weight:normal;font-stretch:normal;font-size:25.39999962px;line-height:6.25;font-family:Raleway;-inkscape-font-specification:Raleway;letter-spacing:0px;word-spacing:0px;fill:#000000;fill-opacity:1;stroke:none;stroke-width:0.26458332"
       id="path3798"
       inkscape:connector-curvature="0" />
    <path
       d="m 87.845861,39.220242 h -1.7272 v -7.3914 q 0,-2.3368 -0.6858,-3.4036 -0.6858,-1.0922 -2.159,-1.0922 -1.016,0 -2.0066,0.508 -0.9906,0.4826 -1.7526,1.3462 -0.7366,0.8382 -1.0668,1.9304 v 8.1026 h -1.7272 v -13.2334 h 1.5748 v 2.9972 q 0.5334,-0.9652 1.397,-1.6764 0.8636,-0.7366 1.9558,-1.143 1.0922,-0.4064 2.2606,-0.4064 1.0922,0 1.8542,0.4064 0.762,0.4064 1.2192,1.1684 0.4572,0.7366 0.6604,1.8034 0.2032,1.0414 0.2032,2.3368 z"
       style="font-style:normal;font-variant:normal;font-weight:normal;font-stretch:normal;font-size:25.39999962px;line-height:6.25;font-family:Raleway;-inkscape-font-specification:Raleway;letter-spacing:0px;word-spacing:0px;fill:#000000;fill-opacity:1;stroke:none;stroke-width:0.26458332"
       id="path3800"
       inkscape:connector-curvature="0" />
    <path
       d="m 90.66486,32.641642 q 0,-1.8796 0.762,-3.429 0.7874,-1.5748 2.159,-2.5146 1.3716,-0.9398 3.1242,-0.9398 1.651,0 2.9464,0.889 1.3208,0.8636 2.0574,2.1082 v -8.0772 h 1.7272 v 16.4592 q 0,0.3556 0.1524,0.5334 0.1524,0.1524 0.4572,0.1778 v 1.3716 q -0.508,0.0762 -0.7874,0.0508 -0.5334,-0.0254 -0.9398,-0.4318 -0.4064,-0.4064 -0.4064,-0.889 v -1.2954 q -0.7874,1.2954 -2.1336,2.0574 -1.3462,0.762 -2.794,0.762 -1.3716,0 -2.54,-0.5588 -1.143,-0.5588 -2.0066,-1.524 -0.8382,-0.9652 -1.3208,-2.1844 -0.4572,-1.2446 -0.4572,-2.5654 z m 11.049,2.032 v -4.0894 q -0.3302,-0.9144 -1.0668,-1.651 -0.7366,-0.762 -1.6764,-1.1938 -0.9144,-0.4572 -1.8288,-0.4572 -1.0668,0 -1.9304,0.4572 -0.8636,0.4318 -1.4986,1.1938 -0.6096,0.762 -0.9398,1.7272 -0.3302,0.9652 -0.3302,1.9812 0,1.0668 0.3556,2.032 0.381,0.9652 1.0668,1.7272 0.6858,0.7366 1.5748,1.143 0.889,0.4064 1.9304,0.4064 0.6604,0 1.3716,-0.254 0.7112,-0.254 1.3462,-0.6858 0.6604,-0.4572 1.0922,-1.0668 0.4318,-0.6096 0.5334,-1.27 z"
       style="font-style:normal;font-variant:normal;font-weight:normal;font-stretch:normal;font-size:25.39999962px;line-height:6.25;font-family:Raleway;-inkscape-font-specification:Raleway;letter-spacing:0px;word-spacing:0px;fill:#000000;fill-opacity:1;stroke:none;stroke-width:0.26458332"
       id="path3802"
       inkscape:connector-curvature="0" />
    <path
       d="m 113.04465,39.474242 q -1.4224,0 -2.6416,-0.5334 -1.2192,-0.5588 -2.1082,-1.4986 -0.889,-0.9652 -1.397,-2.2098 -0.4826,-1.2446 -0.4826,-2.667 0,-1.8542 0.8382,-3.4036 0.8636,-1.5494 2.3622,-2.4638 1.4986,-0.9398 3.4036,-0.9398 1.9558,0 3.4036,0.9398 1.4732,0.9398 2.3114,2.4892 0.8382,1.524 0.8382,3.3528 0,0.2032 0,0.4064 0,0.1778 -0.0254,0.2794 h -11.3284 q 0.127,1.4224 0.7874,2.54 0.6858,1.0922 1.7526,1.7526 1.0922,0.635 2.3622,0.635 1.2954,0 2.4384,-0.6604 1.1684,-0.6604 1.6256,-1.7272 l 1.4986,0.4064 q -0.4064,0.9398 -1.2446,1.7018 -0.8382,0.762 -1.9812,1.1938 -1.1176,0.4064 -2.413,0.4064 z m -4.8768,-7.493 h 9.779 q -0.1016,-1.4478 -0.7874,-2.54 -0.6604,-1.0922 -1.7526,-1.7018 -1.0668,-0.635 -2.3622,-0.635 -1.2954,0 -2.3622,0.635 -1.0668,0.6096 -1.7526,1.7272 -0.6604,1.0922 -0.762,2.5146 z"
       style="font-style:normal;font-variant:normal;font-weight:normal;font-stretch:normal;font-size:25.39999962px;line-height:6.25;font-family:Raleway;-inkscape-font-specification:Raleway;letter-spacing:0px;word-spacing:0px;fill:#000000;fill-opacity:1;stroke:none;stroke-width:0.26458332"
       id="path3804"
       inkscape:connector-curvature="0" />
    <path
       d="m 128.86607,27.510842 q -1.7272,0.0508 -3.048,0.9652 -1.2954,0.9144 -1.8288,2.5146 v 8.2296 h -1.7272 v -13.2334 h 1.6256 v 3.175 q 0.6858,-1.397 1.8034,-2.2606 1.143,-0.8636 2.413,-0.9652 0.254,-0.0254 0.4318,-0.0254 0.2032,0 0.3302,0.0254 z"
       style="font-style:normal;font-variant:normal;font-weight:normal;font-stretch:normal;font-size:25.39999962px;line-height:6.25;font-family:Raleway;-inkscape-font-specification:Raleway;letter-spacing:0px;word-spacing:0px;fill:#000000;fill-opacity:1;stroke:none;stroke-width:0.26458332"
       id="path3806"
       inkscape:connector-curvature="0" />
    <path
       d="m 143.38931,21.313242 h 1.6764 l 2.54,6.4008 2.5654,-6.4008 h 1.7018 l -3.1496,7.6962 3.4544,8.1534 6.5278,-15.9766 h 1.9304 l -7.6454,18.034 h -1.5748 l -3.7846,-8.9154 -3.81,8.9154 h -1.5494 l -7.62,-18.034 h 1.905 l 6.5532,15.9766 3.429,-8.1534 z"
       style="font-style:normal;font-variant:normal;font-weight:normal;font-stretch:normal;font-size:25.39999962px;line-height:6.25;font-family:Raleway;-inkscape-font-specification:Raleway;letter-spacing:0px;word-spacing:0px;fill:#000000;fill-opacity:1;stroke:none;stroke-width:0.26458332"
       id="path3808"
       inkscape:connector-curvature="0" />
    <path
       d="m 160.48589,35.410242 q 0,-1.2446 0.7112,-2.1336 0.7112,-0.9144 1.9558,-1.397 1.27,-0.508 2.921,-0.508 0.9652,0 2.0066,0.1524 1.0414,0.1524 1.8542,0.4572 v -1.1176 q 0,-1.6764 -0.9906,-2.667 -0.9906,-0.9906 -2.7432,-0.9906 -1.0668,0 -2.1082,0.4064 -1.016,0.381 -2.1336,1.143 l -0.6604,-1.2192 q 1.2954,-0.889 2.54,-1.3208 1.2446,-0.4572 2.54,-0.4572 2.4384,0 3.8608,1.397 1.4224,1.397 1.4224,3.8608 v 6.1214 q 0,0.3556 0.1524,0.5334 0.1524,0.1524 0.4826,0.1778 v 1.3716 q -0.2794,0.0254 -0.4826,0.0508 -0.2032,0.0254 -0.3048,0 -0.635,-0.0254 -0.9652,-0.4064 -0.3302,-0.381 -0.3556,-0.8128 l -0.0254,-0.9652 q -0.889,1.143 -2.3114,1.778 -1.4224,0.6096 -2.8956,0.6096 -1.27,0 -2.3114,-0.5334 -1.016,-0.5588 -1.6002,-1.4732 -0.5588,-0.9398 -0.5588,-2.0574 z m 8.8646,1.016 q 0.2794,-0.3556 0.4318,-0.6858 0.1524,-0.3302 0.1524,-0.5842 v -1.9304 q -0.8636,-0.3302 -1.8034,-0.508 -0.9144,-0.1778 -1.8542,-0.1778 -1.8542,0 -2.9972,0.7366 -1.143,0.7366 -1.143,2.0066 0,0.7366 0.381,1.397 0.381,0.635 1.1176,1.0668 0.7366,0.4064 1.7272,0.4064 1.2446,0 2.3114,-0.4826 1.0922,-0.4826 1.6764,-1.2446 z"
       style="font-style:normal;font-variant:normal;font-weight:normal;font-stretch:normal;font-size:25.39999962px;line-height:6.25;font-family:Raleway;-inkscape-font-specification:Raleway;letter-spacing:0px;word-spacing:0px;fill:#000000;fill-opacity:1;stroke:none;stroke-width:0.26458332"
       id="path3810"
       inkscape:connector-curvature="0" />
    <path
       d="m 186.51891,39.220242 h -1.7272 v -7.3914 q 0,-2.3368 -0.6858,-3.4036 -0.6858,-1.0922 -2.159,-1.0922 -1.016,0 -2.0066,0.508 -0.9906,0.4826 -1.7526,1.3462 -0.7366,0.8382 -1.0668,1.9304 v 8.1026 h -1.7272 v -13.2334 h 1.5748 v 2.9972 q 0.5334,-0.9652 1.397,-1.6764 0.8636,-0.7366 1.9558,-1.143 1.0922,-0.4064 2.2606,-0.4064 1.0922,0 1.8542,0.4064 0.762,0.4064 1.2192,1.1684 0.4572,0.7366 0.6604,1.8034 0.2032,1.0414 0.2032,2.3368 z"
       style="font-style:normal;font-variant:normal;font-weight:normal;font-stretch:normal;font-size:25.39999962px;line-height:6.25;font-family:Raleway;-inkscape-font-specification:Raleway;letter-spacing:0px;word-spacing:0px;fill:#000000;fill-opacity:1;stroke:none;stroke-width:0.26458332"
       id="path3812"
       inkscape:connector-curvature="0" />
    <path
       d="m 195.5355,39.398042 q -1.3462,0 -2.4892,-0.5588 -1.143,-0.5588 -1.9812,-1.4986 -0.8128,-0.9652 -1.27,-2.1844 -0.4572,-1.2192 -0.4572,-2.5146 0,-1.397 0.4318,-2.6162 0.4572,-1.2446 1.27,-2.2098 0.8382,-0.9652 1.9558,-1.4986 1.1176,-0.5588 2.4892,-0.5588 1.7018,0 2.9464,0.8636 1.27,0.8636 2.1336,2.1336 v -2.7686 h 1.5494 v 13.2842 q 0,1.8288 -0.889,3.073399 -0.8636,1.27 -2.3622,1.905 -1.4732,0.635 -3.2258,0.635 -2.2606,0 -3.6576,-0.8128 -1.397,-0.8128 -2.286,-2.184399 l 1.0668,-0.8382 q 0.7874,1.2446 2.0828,1.854199 1.3208,0.6096 2.794,0.6096 1.2954,0 2.3622,-0.4826 1.0922,-0.4572 1.7272,-1.396999 0.6604,-0.9398 0.6604,-2.3622 v -2.6162 q -0.762,1.2446 -2.0828,2.0066 -1.3208,0.7366 -2.7686,0.7366 z m 0.4826,-1.4478 q 0.7874,0 1.4986,-0.2794 0.7366,-0.2794 1.3462,-0.7366 0.6096,-0.4826 1.016,-1.0668 0.4064,-0.5842 0.508,-1.1938 v -4.0894 q -0.381,-0.9652 -1.0922,-1.7018 -0.7112,-0.762 -1.6256,-1.1684 -0.889,-0.4318 -1.8542,-0.4318 -1.1176,0 -2.0066,0.4826 -0.8636,0.4572 -1.4732,1.2446 -0.5842,0.762 -0.9144,1.7272 -0.3302,0.9652 -0.3302,1.9304 0,1.0668 0.381,2.032 0.381,0.9398 1.0414,1.7018 0.6858,0.7366 1.5748,1.143 0.9144,0.4064 1.9304,0.4064 z"
       style="font-style:normal;font-variant:normal;font-weight:normal;font-stretch:normal;font-size:25.39999962px;line-height:6.25;font-family:Raleway;-inkscape-font-specification:Raleway;letter-spacing:0px;word-spacing:0px;fill:#000000;fill-opacity:1;stroke:none;stroke-width:0.26458332"
       id="path3814"
       inkscape:connector-curvature="0" />
    <g
       transform="matrix(1.3400268,0,0,1.3400268,-71.494272,-297.05033)"
       id="g3834">
      <path
         sodipodi:nodetypes="ccccccccccccc"
         inkscape:connector-curvature="0"
         id="path48"
         style="font-style:normal;font-variant:normal;font-weight:normal;font-stretch:normal;font-size:42.66666794px;line-height:6.25;font-family:Raleway;-inkscape-font-specification:Raleway;letter-spacing:0px;word-spacing:0px;fill:#000000;fill-opacity:1;stroke:none;stroke-width:0.26458332"
         d="m 66.297936,235.54613 h 0.666045 l 3.330222,8.01511 h -0.835378 l -1.2192,-3.12702 h -3.2512 l -1.196622,3.12702 h -0.846667 z m 1.941689,4.88809 -1.614311,-3.9624 -1.636889,3.9624 z" />
      <g
         id="text46"
         style="font-style:normal;font-weight:normal;font-size:24px;line-height:6.25;font-family:sans-serif;letter-spacing:0px;word-spacing:0px;fill:#000000;fill-opacity:1;stroke:none"
         aria-label="W"
         transform="matrix(0.26458333,0,0,0.26458333,58.041607,234.92365)">
        <g
           id="g3758">
          <path
             d="m 30.20272,44.019569 1.895304,-4.644622 1.774029,4.644622 v 0 L 39.67472,57.71557 50.640054,30.878236 h 3.242667 L 41.040053,61.17157 H 38.39472 L 32.037387,46.195569 25.637386,61.17157 H 23.03472 L 10.234719,30.878236 h 3.2 L 24.44272,57.71557 Z"
             style="font-style:normal;font-variant:normal;font-weight:normal;font-stretch:normal;font-size:42.66666794px;font-family:Raleway;-inkscape-font-specification:Raleway"
             id="path51"
             inkscape:connector-curvature="0"
             sodipodi:nodetypes="cccccccccccccccc" />
        </g>
      </g>
    </g>
    <g
       transform="matrix(1.3497238,0,0,1.3497238,7.5194662,-251.17978)"
       id="g4709">
      <path
         inkscape:connector-curvature="0"
         id="path3879"
         d="m 7.974539,280.68001 -3.1517455,7.86515 h 1.2195638 l 0.7746296,-2.19315 1.2510865,-3.55534 1.1466999,3.55534 0.7596439,2.19315 h 1.2159458 l -2.9238521,-7.86515 z"
         style="font-style:normal;font-variant:normal;font-weight:normal;font-stretch:normal;font-size:11.28888893px;line-height:6.25;font-family:'Trebuchet MS';-inkscape-font-specification:'Trebuchet MS';letter-spacing:0px;word-spacing:0px;fill:#000000;fill-opacity:1;stroke:none;stroke-width:0.26458332" />
      <path
         inkscape:connector-curvature="0"
         id="path3881"
         d="m 3.7103679,288.92925 2.1409543,6.88175 h 0.3472657 l 1.7973063,-5.5671 1.9233967,5.5671 h 0.3472661 l 2.028816,-6.88175 H 11.205001 L 9.9854368,293.25302 8.673889,288.92925 H 7.4062663 l -1.3342855,4.33514 -1.245919,-4.33514 z"
         style="font-style:normal;font-variant:normal;font-weight:normal;font-stretch:normal;font-size:11.28888893px;line-height:6.25;font-family:'Trebuchet MS';-inkscape-font-specification:'Trebuchet MS';letter-spacing:0px;word-spacing:0px;fill:#000000;fill-opacity:1;stroke:none;stroke-width:0.26458332" />
    </g>
    <g
       transform="matrix(0.56100635,0,0,0.43573096,-5.4539168,86.429563)"
       id="g4808">
      <path
         inkscape:connector-curvature="0"
         id="path4789"
         d="M 28.341986,4.9513988 20.299017,29.174055 h 3.824219 l 2.009765,-6.24414 4.605469,-14.5625012 4.603516,14.5625012 1.998047,6.24414 h 4.017578 L 33.42597,4.9513988 Z"
         style="font-style:normal;font-variant:normal;font-weight:normal;font-stretch:normal;font-size:42.66666794px;line-height:6.25;font-family:Consolas;-inkscape-font-specification:Consolas;letter-spacing:0px;word-spacing:0px;fill:#000000;fill-opacity:1;stroke:none" />
      <path
         inkscape:connector-curvature="0"
         id="path4791"
         d="m 20.237474,31.118769 1.619141,23.523438 h 4.646484 l 3.125,-9.4375 0.978516,-3.355469 0.9375,3.105469 3.375,9.6875 h 4.8125 l 1.583984,-23.523438 h -3.265625 l -0.880859,16.148438 -0.08203,3.75 L 35.8156,47.433222 32.024585,36.599238 h -2.5625 l -3.292969,10.105469 -1.3125,4.3125 -0.3125,-5.083985 -0.849609,-14.814453 z"
         style="font-style:normal;font-variant:normal;font-weight:normal;font-stretch:normal;font-size:42.66666794px;line-height:6.25;font-family:Consolas;-inkscape-font-specification:Consolas;letter-spacing:0px;word-spacing:0px;fill:#000000;fill-opacity:1;stroke:none" />
    </g>
    <g
       transform="matrix(0.57422587,0,0,0.45124908,-0.0271637,49.330549)"
       id="g4938">
      <path
         inkscape:connector-curvature="0"
         id="path4923"
         d="M 26.853553,7.8019965 19.44535,32.003169 h 4.207031 l 1.304688,-4.576172 4.4375,-15.916016 4.4375,15.916016 1.3125,4.576172 h 4.220703 L 31.957069,7.8019965 Z"
         style="font-style:normal;font-variant:normal;font-weight:normal;font-stretch:normal;font-size:42.66666794px;line-height:6.25;font-family:inconsolata;-inkscape-font-specification:inconsolata;letter-spacing:0px;word-spacing:0px;fill:#000000;fill-opacity:1;stroke:none" />
      <path
         inkscape:connector-curvature="0"
         id="path4925"
         d="m 17.689069,33.860113 3.365234,22.539062 h 3.980469 l 4.207031,-18.480469 4.230469,18.480469 h 3.978516 L 40.817975,33.860113 H 36.983991 L 35.013288,50.586675 31.435163,33.860113 h -4.40625 l -3.53711,16.683593 -1.96875,-16.683593 z"
         style="font-style:normal;font-variant:normal;font-weight:normal;font-stretch:normal;font-size:42.66666794px;line-height:6.25;font-family:inconsolata;-inkscape-font-specification:inconsolata;letter-spacing:0px;word-spacing:0px;fill:#000000;fill-opacity:1;stroke:none" />
    </g>
  </g>
</svg>
