<?xml version="1.0" encoding="UTF-8" standalone="no"?>
<!-- Created with Inkscape (http://www.inkscape.org/) -->

<svg
   xmlns:dc="http://purl.org/dc/elements/1.1/"
   xmlns:cc="http://creativecommons.org/ns#"
   xmlns:rdf="http://www.w3.org/1999/02/22-rdf-syntax-ns#"
   xmlns:svg="http://www.w3.org/2000/svg"
   xmlns="http://www.w3.org/2000/svg"
   xmlns:sodipodi="http://sodipodi.sourceforge.net/DTD/sodipodi-0.dtd"
   xmlns:inkscape="http://www.inkscape.org/namespaces/inkscape"
   width="1128px"
   height="191px"
   viewBox="0 0 1128 191"
   version="1.1"
   id="SVGRoot"
   inkscape:version="0.92.4 (5da689c313, 2019-01-14)"
   sodipodi:docname="title_single.svg">
  <defs
     id="defs177" />
  <sodipodi:namedview
     id="base"
     pagecolor="#ffffff"
     bordercolor="#666666"
     borderopacity="1.0"
     inkscape:pageopacity="0.0"
     inkscape:pageshadow="2"
     inkscape:zoom="0.98994949"
     inkscape:cx="547.33248"
     inkscape:cy="95.5"
     inkscape:document-units="px"
     inkscape:current-layer="layer1"
     showgrid="false"
     inkscape:window-width="1920"
     inkscape:window-height="1017"
     inkscape:window-x="-8"
     inkscape:window-y="-8"
     inkscape:window-maximized="1" />
  <metadata
     id="metadata180">
    <rdf:RDF>
      <cc:Work
         rdf:about="">
        <dc:format>image/svg+xml</dc:format>
        <dc:type
           rdf:resource="http://purl.org/dc/dcmitype/StillImage" />
        <dc:title></dc:title>
      </cc:Work>
    </rdf:RDF>
  </metadata>
  <g
     inkscape:label="Layer 1"
     inkscape:groupmode="layer"
     id="layer1">
    <g
       transform="matrix(5.760916,0,0,5.760916,-46.731538,-87.329115)"
       id="g207">
      <path
         inkscape:connector-curvature="0"
         id="path3792"
         style="font-style:normal;font-variant:normal;font-weight:normal;font-stretch:normal;font-size:25.39999962px;line-height:6.25;font-family:Raleway;-inkscape-font-specification:Raleway;letter-spacing:0px;word-spacing:0px;fill:#000000;fill-opacity:1;stroke:none;stroke-width:0.26458332"
         d="m 28.973423,20.678242 h 1.7272 v 15.5448 q 0,0.9906 0.3556,1.2954 0.3556,0.3048 0.8636,0.3048 0.4572,0 0.9144,-0.1016 0.4572,-0.1016 0.7874,-0.2032 l 0.3048,1.397 q -0.4826,0.2032 -1.1938,0.3302 -0.6858,0.127 -1.1938,0.127 -1.1684,0 -1.8796,-0.6858 -0.6858,-0.6858 -0.6858,-1.8796 z" />
      <path
         inkscape:connector-curvature="0"
         id="path3794"
         style="font-style:normal;font-variant:normal;font-weight:normal;font-stretch:normal;font-size:25.39999962px;line-height:6.25;font-family:Raleway;-inkscape-font-specification:Raleway;letter-spacing:0px;word-spacing:0px;fill:#000000;fill-opacity:1;stroke:none;stroke-width:0.26458332"
         d="m 41.507925,39.474242 q -1.4224,0 -2.6416,-0.5334 -1.2192,-0.5588 -2.1082,-1.4986 -0.889,-0.9652 -1.397,-2.2098 -0.4826,-1.2446 -0.4826,-2.667 0,-1.8542 0.8382,-3.4036 0.8636,-1.5494 2.3622,-2.4638 1.4986,-0.9398 3.4036,-0.9398 1.9558,0 3.4036,0.9398 1.4732,0.9398 2.3114,2.4892 0.8382,1.524 0.8382,3.3528 0,0.2032 0,0.4064 0,0.1778 -0.0254,0.2794 h -11.3284 q 0.127,1.4224 0.7874,2.54 0.6858,1.0922 1.7526,1.7526 1.0922,0.635 2.3622,0.635 1.2954,0 2.4384,-0.6604 1.1684,-0.6604 1.6256,-1.7272 l 1.4986,0.4064 q -0.4064,0.9398 -1.2446,1.7018 -0.8382,0.762 -1.9812,1.1938 -1.1176,0.4064 -2.413,0.4064 z m -4.8768,-7.493 h 9.779 q -0.1016,-1.4478 -0.7874,-2.54 -0.6604,-1.0922 -1.7526,-1.7018 -1.0668,-0.635 -2.3622,-0.635 -1.2954,0 -2.3622,0.635 -1.0668,0.6096 -1.7526,1.7272 -0.6604,1.0922 -0.762,2.5146 z" />
      <path
         inkscape:connector-curvature="0"
         id="path3796"
         style="font-style:normal;font-variant:normal;font-weight:normal;font-stretch:normal;font-size:25.39999962px;line-height:6.25;font-family:Raleway;-inkscape-font-specification:Raleway;letter-spacing:0px;word-spacing:0px;fill:#000000;fill-opacity:1;stroke:none;stroke-width:0.26458332"
         d="m 50.635652,25.986842 3.8862,5.1816 0.2032,0.381 0.2032,-0.381 3.8608,-5.1816 h 1.9558 l -5.0292,6.6548 5.0292,6.5786 h -1.9558 l -3.8608,-5.1562 -0.2032,-0.3556 -0.2032,0.3556 -3.8608,5.1562 h -1.9558 l 5.0038,-6.5786 -5.0038,-6.6548 z" />
      <path
         inkscape:connector-curvature="0"
         id="path3798"
         style="font-style:normal;font-variant:normal;font-weight:normal;font-stretch:normal;font-size:25.39999962px;line-height:6.25;font-family:Raleway;-inkscape-font-specification:Raleway;letter-spacing:0px;word-spacing:0px;fill:#000000;fill-opacity:1;stroke:none;stroke-width:0.26458332"
         d="m 61.812843,35.410242 q 0,-1.2446 0.7112,-2.1336 0.7112,-0.9144 1.9558,-1.397 1.27,-0.508 2.921,-0.508 0.9652,0 2.0066,0.1524 1.0414,0.1524 1.8542,0.4572 v -1.1176 q 0,-1.6764 -0.9906,-2.667 -0.9906,-0.9906 -2.7432,-0.9906 -1.0668,0 -2.1082,0.4064 -1.016,0.381 -2.1336,1.143 l -0.6604,-1.2192 q 1.2954,-0.889 2.54,-1.3208 1.2446,-0.4572 2.54,-0.4572 2.4384,0 3.8608,1.397 1.4224,1.397 1.4224,3.8608 v 6.1214 q 0,0.3556 0.1524,0.5334 0.1524,0.1524 0.4826,0.1778 v 1.3716 q -0.2794,0.0254 -0.4826,0.0508 -0.2032,0.0254 -0.3048,0 -0.635,-0.0254 -0.9652,-0.4064 -0.3302,-0.381 -0.3556,-0.8128 l -0.0254,-0.9652 q -0.889,1.143 -2.3114,1.778 -1.4224,0.6096 -2.8956,0.6096 -1.27,0 -2.3114,-0.5334 -1.016,-0.5588 -1.6002,-1.4732 -0.5588,-0.9398 -0.5588,-2.0574 z m 8.8646,1.016 q 0.2794,-0.3556 0.4318,-0.6858 0.1524,-0.3302 0.1524,-0.5842 v -1.9304 q -0.8636,-0.3302 -1.8034,-0.508 -0.9144,-0.1778 -1.8542,-0.1778 -1.8542,0 -2.9972,0.7366 -1.143,0.7366 -1.143,2.0066 0,0.7366 0.381,1.397 0.381,0.635 1.1176,1.0668 0.7366,0.4064 1.7272,0.4064 1.2446,0 2.3114,-0.4826 1.0922,-0.4826 1.6764,-1.2446 z" />
      <path
         inkscape:connector-curvature="0"
         id="path3800"
         style="font-style:normal;font-variant:normal;font-weight:normal;font-stretch:normal;font-size:25.39999962px;line-height:6.25;font-family:Raleway;-inkscape-font-specification:Raleway;letter-spacing:0px;word-spacing:0px;fill:#000000;fill-opacity:1;stroke:none;stroke-width:0.26458332"
         d="m 87.845861,39.220242 h -1.7272 v -7.3914 q 0,-2.3368 -0.6858,-3.4036 -0.6858,-1.0922 -2.159,-1.0922 -1.016,0 -2.0066,0.508 -0.9906,0.4826 -1.7526,1.3462 -0.7366,0.8382 -1.0668,1.9304 v 8.1026 h -1.7272 v -13.2334 h 1.5748 v 2.9972 q 0.5334,-0.9652 1.397,-1.6764 0.8636,-0.7366 1.9558,-1.143 1.0922,-0.4064 2.2606,-0.4064 1.0922,0 1.8542,0.4064 0.762,0.4064 1.2192,1.1684 0.4572,0.7366 0.6604,1.8034 0.2032,1.0414 0.2032,2.3368 z" />
      <path
         inkscape:connector-curvature="0"
         id="path3802"
         style="font-style:normal;font-variant:normal;font-weight:normal;font-stretch:normal;font-size:25.39999962px;line-height:6.25;font-family:Raleway;-inkscape-font-specification:Raleway;letter-spacing:0px;word-spacing:0px;fill:#000000;fill-opacity:1;stroke:none;stroke-width:0.26458332"
         d="m 90.66486,32.641642 q 0,-1.8796 0.762,-3.429 0.7874,-1.5748 2.159,-2.5146 1.3716,-0.9398 3.1242,-0.9398 1.651,0 2.9464,0.889 1.3208,0.8636 2.0574,2.1082 v -8.0772 h 1.7272 v 16.4592 q 0,0.3556 0.1524,0.5334 0.1524,0.1524 0.4572,0.1778 v 1.3716 q -0.508,0.0762 -0.7874,0.0508 -0.5334,-0.0254 -0.9398,-0.4318 -0.4064,-0.4064 -0.4064,-0.889 v -1.2954 q -0.7874,1.2954 -2.1336,2.0574 -1.3462,0.762 -2.794,0.762 -1.3716,0 -2.54,-0.5588 -1.143,-0.5588 -2.0066,-1.524 -0.8382,-0.9652 -1.3208,-2.1844 -0.4572,-1.2446 -0.4572,-2.5654 z m 11.049,2.032 v -4.0894 q -0.3302,-0.9144 -1.0668,-1.651 -0.7366,-0.762 -1.6764,-1.1938 -0.9144,-0.4572 -1.8288,-0.4572 -1.0668,0 -1.9304,0.4572 -0.8636,0.4318 -1.4986,1.1938 -0.6096,0.762 -0.9398,1.7272 -0.3302,0.9652 -0.3302,1.9812 0,1.0668 0.3556,2.032 0.381,0.9652 1.0668,1.7272 0.6858,0.7366 1.5748,1.143 0.889,0.4064 1.9304,0.4064 0.6604,0 1.3716,-0.254 0.7112,-0.254 1.3462,-0.6858 0.6604,-0.4572 1.0922,-1.0668 0.4318,-0.6096 0.5334,-1.27 z" />
      <path
         inkscape:connector-curvature="0"
         id="path3804"
         style="font-style:normal;font-variant:normal;font-weight:normal;font-stretch:normal;font-size:25.39999962px;line-height:6.25;font-family:Raleway;-inkscape-font-specification:Raleway;letter-spacing:0px;word-spacing:0px;fill:#000000;fill-opacity:1;stroke:none;stroke-width:0.26458332"
         d="m 113.04465,39.474242 q -1.4224,0 -2.6416,-0.5334 -1.2192,-0.5588 -2.1082,-1.4986 -0.889,-0.9652 -1.397,-2.2098 -0.4826,-1.2446 -0.4826,-2.667 0,-1.8542 0.8382,-3.4036 0.8636,-1.5494 2.3622,-2.4638 1.4986,-0.9398 3.4036,-0.9398 1.9558,0 3.4036,0.9398 1.4732,0.9398 2.3114,2.4892 0.8382,1.524 0.8382,3.3528 0,0.2032 0,0.4064 0,0.1778 -0.0254,0.2794 h -11.3284 q 0.127,1.4224 0.7874,2.54 0.6858,1.0922 1.7526,1.7526 1.0922,0.635 2.3622,0.635 1.2954,0 2.4384,-0.6604 1.1684,-0.6604 1.6256,-1.7272 l 1.4986,0.4064 q -0.4064,0.9398 -1.2446,1.7018 -0.8382,0.762 -1.9812,1.1938 -1.1176,0.4064 -2.413,0.4064 z m -4.8768,-7.493 h 9.779 q -0.1016,-1.4478 -0.7874,-2.54 -0.6604,-1.0922 -1.7526,-1.7018 -1.0668,-0.635 -2.3622,-0.635 -1.2954,0 -2.3622,0.635 -1.0668,0.6096 -1.7526,1.7272 -0.6604,1.0922 -0.762,2.5146 z" />
      <path
         inkscape:connector-curvature="0"
         id="path3806"
         style="font-style:normal;font-variant:normal;font-weight:normal;font-stretch:normal;font-size:25.39999962px;line-height:6.25;font-family:Raleway;-inkscape-font-specification:Raleway;letter-spacing:0px;word-spacing:0px;fill:#000000;fill-opacity:1;stroke:none;stroke-width:0.26458332"
         d="m 128.86607,27.510842 q -1.7272,0.0508 -3.048,0.9652 -1.2954,0.9144 -1.8288,2.5146 v 8.2296 h -1.7272 v -13.2334 h 1.6256 v 3.175 q 0.6858,-1.397 1.8034,-2.2606 1.143,-0.8636 2.413,-0.9652 0.254,-0.0254 0.4318,-0.0254 0.2032,0 0.3302,0.0254 z" />
      <path
         inkscape:connector-curvature="0"
         id="path3808"
         style="font-style:normal;font-variant:normal;font-weight:normal;font-stretch:normal;font-size:25.39999962px;line-height:6.25;font-family:Raleway;-inkscape-font-specification:Raleway;letter-spacing:0px;word-spacing:0px;fill:#000000;fill-opacity:1;stroke:none;stroke-width:0.26458332"
         d="m 143.38931,21.313242 h 1.6764 l 2.54,6.4008 2.5654,-6.4008 h 1.7018 l -3.1496,7.6962 3.4544,8.1534 6.5278,-15.9766 h 1.9304 l -7.6454,18.034 h -1.5748 l -3.7846,-8.9154 -3.81,8.9154 h -1.5494 l -7.62,-18.034 h 1.905 l 6.5532,15.9766 3.429,-8.1534 z" />
      <path
         inkscape:connector-curvature="0"
         id="path3810"
         style="font-style:normal;font-variant:normal;font-weight:normal;font-stretch:normal;font-size:25.39999962px;line-height:6.25;font-family:Raleway;-inkscape-font-specification:Raleway;letter-spacing:0px;word-spacing:0px;fill:#000000;fill-opacity:1;stroke:none;stroke-width:0.26458332"
         d="m 160.48589,35.410242 q 0,-1.2446 0.7112,-2.1336 0.7112,-0.9144 1.9558,-1.397 1.27,-0.508 2.921,-0.508 0.9652,0 2.0066,0.1524 1.0414,0.1524 1.8542,0.4572 v -1.1176 q 0,-1.6764 -0.9906,-2.667 -0.9906,-0.9906 -2.7432,-0.9906 -1.0668,0 -2.1082,0.4064 -1.016,0.381 -2.1336,1.143 l -0.6604,-1.2192 q 1.2954,-0.889 2.54,-1.3208 1.2446,-0.4572 2.54,-0.4572 2.4384,0 3.8608,1.397 1.4224,1.397 1.4224,3.8608 v 6.1214 q 0,0.3556 0.1524,0.5334 0.1524,0.1524 0.4826,0.1778 v 1.3716 q -0.2794,0.0254 -0.4826,0.0508 -0.2032,0.0254 -0.3048,0 -0.635,-0.0254 -0.9652,-0.4064 -0.3302,-0.381 -0.3556,-0.8128 l -0.0254,-0.9652 q -0.889,1.143 -2.3114,1.778 -1.4224,0.6096 -2.8956,0.6096 -1.27,0 -2.3114,-0.5334 -1.016,-0.5588 -1.6002,-1.4732 -0.5588,-0.9398 -0.5588,-2.0574 z m 8.8646,1.016 q 0.2794,-0.3556 0.4318,-0.6858 0.1524,-0.3302 0.1524,-0.5842 v -1.9304 q -0.8636,-0.3302 -1.8034,-0.508 -0.9144,-0.1778 -1.8542,-0.1778 -1.8542,0 -2.9972,0.7366 -1.143,0.7366 -1.143,2.0066 0,0.7366 0.381,1.397 0.381,0.635 1.1176,1.0668 0.7366,0.4064 1.7272,0.4064 1.2446,0 2.3114,-0.4826 1.0922,-0.4826 1.6764,-1.2446 z" />
      <path
         inkscape:connector-curvature="0"
         id="path3812"
         style="font-style:normal;font-variant:normal;font-weight:normal;font-stretch:normal;font-size:25.39999962px;line-height:6.25;font-family:Raleway;-inkscape-font-specification:Raleway;letter-spacing:0px;word-spacing:0px;fill:#000000;fill-opacity:1;stroke:none;stroke-width:0.26458332"
         d="m 186.51891,39.220242 h -1.7272 v -7.3914 q 0,-2.3368 -0.6858,-3.4036 -0.6858,-1.0922 -2.159,-1.0922 -1.016,0 -2.0066,0.508 -0.9906,0.4826 -1.7526,1.3462 -0.7366,0.8382 -1.0668,1.9304 v 8.1026 h -1.7272 v -13.2334 h 1.5748 v 2.9972 q 0.5334,-0.9652 1.397,-1.6764 0.8636,-0.7366 1.9558,-1.143 1.0922,-0.4064 2.2606,-0.4064 1.0922,0 1.8542,0.4064 0.762,0.4064 1.2192,1.1684 0.4572,0.7366 0.6604,1.8034 0.2032,1.0414 0.2032,2.3368 z" />
      <path
         inkscape:connector-curvature="0"
         id="path3814"
         style="font-style:normal;font-variant:normal;font-weight:normal;font-stretch:normal;font-size:25.39999962px;line-height:6.25;font-family:Raleway;-inkscape-font-specification:Raleway;letter-spacing:0px;word-spacing:0px;fill:#000000;fill-opacity:1;stroke:none;stroke-width:0.26458332"
         d="m 195.5355,39.398042 q -1.3462,0 -2.4892,-0.5588 -1.143,-0.5588 -1.9812,-1.4986 -0.8128,-0.9652 -1.27,-2.1844 -0.4572,-1.2192 -0.4572,-2.5146 0,-1.397 0.4318,-2.6162 0.4572,-1.2446 1.27,-2.2098 0.8382,-0.9652 1.9558,-1.4986 1.1176,-0.5588 2.4892,-0.5588 1.7018,0 2.9464,0.8636 1.27,0.8636 2.1336,2.1336 v -2.7686 h 1.5494 v 13.2842 q 0,1.8288 -0.889,3.073399 -0.8636,1.27 -2.3622,1.905 -1.4732,0.635 -3.2258,0.635 -2.2606,0 -3.6576,-0.8128 -1.397,-0.8128 -2.286,-2.184399 l 1.0668,-0.8382 q 0.7874,1.2446 2.0828,1.854199 1.3208,0.6096 2.794,0.6096 1.2954,0 2.3622,-0.4826 1.0922,-0.4572 1.7272,-1.396999 0.6604,-0.9398 0.6604,-2.3622 v -2.6162 q -0.762,1.2446 -2.0828,2.0066 -1.3208,0.7366 -2.7686,0.7366 z m 0.4826,-1.4478 q 0.7874,0 1.4986,-0.2794 0.7366,-0.2794 1.3462,-0.7366 0.6096,-0.4826 1.016,-1.0668 0.4064,-0.5842 0.508,-1.1938 v -4.0894 q -0.381,-0.9652 -1.0922,-1.7018 -0.7112,-0.762 -1.6256,-1.1684 -0.889,-0.4318 -1.8542,-0.4318 -1.1176,0 -2.0066,0.4826 -0.8636,0.4572 -1.4732,1.2446 -0.5842,0.762 -0.9144,1.7272 -0.3302,0.9652 -0.3302,1.9304 0,1.0668 0.381,2.032 0.381,0.9398 1.0414,1.7018 0.6858,0.7366 1.5748,1.143 0.9144,0.4064 1.9304,0.4064 z" />
      <g
         id="g3834"
         transform="matrix(1.3400268,0,0,1.3400268,-71.494272,-297.05033)">
        <path
           d="m 66.297936,235.54613 h 0.666045 l 3.330222,8.01511 h -0.835378 l -1.2192,-3.12702 h -3.2512 l -1.196622,3.12702 h -0.846667 z m 1.941689,4.88809 -1.614311,-3.9624 -1.636889,3.9624 z"
           style="font-style:normal;font-variant:normal;font-weight:normal;font-stretch:normal;font-size:42.66666794px;line-height:6.25;font-family:Raleway;-inkscape-font-specification:Raleway;letter-spacing:0px;word-spacing:0px;fill:#000000;fill-opacity:1;stroke:none;stroke-width:0.26458332"
           id="path48"
           inkscape:connector-curvature="0"
           sodipodi:nodetypes="ccccccccccccc" />
        <g
           transform="matrix(0.26458333,0,0,0.26458333,58.041607,234.92365)"
           aria-label="W"
           style="font-style:normal;font-weight:normal;font-size:24px;line-height:6.25;font-family:sans-serif;letter-spacing:0px;word-spacing:0px;fill:#000000;fill-opacity:1;stroke:none"
           id="text46">
          <g
             id="g3758">
            <path
               sodipodi:nodetypes="cccccccccccccccc"
               inkscape:connector-curvature="0"
               id="path51"
               style="font-style:normal;font-variant:normal;font-weight:normal;font-stretch:normal;font-size:42.66666794px;font-family:Raleway;-inkscape-font-specification:Raleway"
               d="m 30.20272,44.019569 1.895304,-4.644622 1.774029,4.644622 v 0 L 39.67472,57.71557 50.640054,30.878236 h 3.242667 L 41.040053,61.17157 H 38.39472 L 32.037387,46.195569 25.637386,61.17157 H 23.03472 L 10.234719,30.878236 h 3.2 L 24.44272,57.71557 Z" />
          </g>
        </g>
      </g>
    </g>
  </g>
</svg>
